# xmcd CD database file
#
# Track frame offsets:
#	150
#	22270
#	39367
#
# Disc length: 816 seconds
#
# Revision: 0
# Processed by: cddbd v1.5.1PL0 Copyright (c) Steve Scherf et al.
# Submitted via: CDex 1.51
#
DISCID=1e032e03
DTITLE=808 - CONTROL
DYEAR=1998
DGENRE=JPop
TTITLE0=CONTROL
TTITLE1=LOVE TRAIN
TTITLE2=CONTROL（Without voice）
EXTD=YEAR: 1998
EXTT0=
EXTT1=
EXTT2=
PLAYORDER=
